<?xml version="1.0" encoding="UTF-8" standalone="no"?><svg xmlns="http://www.w3.org/2000/svg" xmlns:xlink="http://www.w3.org/1999/xlink" fill="#000000" height="400.8" preserveAspectRatio="xMidYMid meet" version="1" viewBox="38.0 49.5 423.0 400.8" width="423" zoomAndPan="magnify"><g fill="#b91f23" id="change1_1"><path d="M230.79,234.51c-7.07-6.63-14.68-12.78-21.1-19.99c-13.93-15.65-31.4-26.22-48.94-37.09 c-10.61-6.58-21.27-11.14-33.64-12.82c-21.49-2.92-34.09,9-44.27,25.25c-3.64,5.8-6.23,12.25-9.75,18.13 c-5.14,8.59-12.55,11.04-20.13,7.18c-7.61-3.88-11.76-15.37-7.66-23.31c22.83-44.23,61.8-65.61,111.91-35.89 c24.41,14.47,43.24,35.22,59.93,57.96c4.85,6.6,9.95,13.01,14.94,19.51C231.65,233.79,231.22,234.15,230.79,234.51z"/><path d="M291.91,254.14c20.63-6.26,43.19-10.61,66.04-6.24c20.79,3.97,41.1,10.36,56.68,26.11 c13.04,13.19,19.84,29.71,23.59,47.45c2.05,9.71-4.76,18.35-13.97,19.63c-9.27,1.29-15.78-4.97-18.12-15.48 c-2.44-10.96-4.79-22.3-9.61-32.3c-10.05-20.86-30.31-28.24-50.98-32.55C327.59,257.02,309.03,256.14,291.91,254.14z"/><path d="M160.02,327.09c3.68-6.22,13.12-1.56,10.43,5.15c-0.1,0.26-0.21,0.52-0.31,0.78 c-9.12,23.32-10.48,47.05-8.24,72c0.28,3.11,0.71,14.14-10.65,14.14c-7.23,0-9.9-8.72-10.09-12.13 C139.61,380.1,145.82,351.12,160.02,327.09z"/><path d="M82.99,387.06c-10.99,7.48-11.9,16.89-8.78,28.42c-9.3-7.59-17.99-6.55-26.61,0.43 c-0.66-17.56-0.66-17.56-9.6-29.07c10.9-0.46,19.65-3.72,22.28-16.09C64.39,381.35,70.18,388.46,82.99,387.06z"/><path d="M277.21,355.14c-9.02,6.14-9.77,13.87-7.21,23.34c-7.64-6.24-14.78-5.38-21.85,0.35 c-0.54-14.42-0.54-14.42-7.88-23.87c8.95-0.38,16.14-3.06,18.3-13.22C261.94,350.45,266.7,356.29,277.21,355.14z"/><path d="M461,225.04c-9.02,6.14-9.77,13.87-7.21,23.34c-7.64-6.24-14.78-5.38-21.85,0.35 c-0.54-14.42-0.54-14.42-7.88-23.87c8.95-0.38,16.14-3.06,18.3-13.22C445.73,220.35,450.49,226.19,461,225.04z"/><path d="M195.53,89.69c-10.99,7.48-11.9,16.89-8.78,28.42c-9.3-7.59-17.99-6.55-26.61,0.43 c-0.66-17.56-0.66-17.56-9.6-29.07c10.9-0.46,19.65-3.72,22.28-16.09C176.94,83.98,182.73,91.09,195.53,89.69z"/><path d="M347.81,103.43c0.12,9.57-4.5,14.86-10.61,14.34c-6.76-0.57-10.12-4.87-9.94-11.42 c0.18-6.4,3.36-11.06,10.27-11.05C344.3,95.32,347.66,99.46,347.81,103.43z"/><path d="M397.37,394.6c0.12,9.57-4.5,14.86-10.61,14.34c-6.76-0.57-10.12-4.87-9.94-11.42 c0.18-6.4,3.36-11.06,10.27-11.05C393.86,386.49,397.22,390.63,397.37,394.6z"/></g><g fill="#4c080d" id="change2_1"><path d="M229.22,252.67c-7.44-2.22-14.74-5.23-22.34-6.53c-28.92-4.97-57.97,19.46-67.69,40.69 c-9.77,21.33-16.71,43.95-24.92,65.99c-1.04,2.79-2.03,5.65-3.48,8.23c-5.06,9-11.28,11.82-18.88,8.86 c-7.07-2.75-13.14-13.29-10.2-20.72c13.58-34.31,29.2-67.29,58.24-92.06c25.26-21.55,52.37-25.23,82.11-11.22 c2.89,1.36,5.2,3.93,7.79,5.94C229.64,252.12,229.43,252.39,229.22,252.67z"/><path d="M248.28,229.92c-17.23-37.49-31.87-75.49-23.25-117.91c4.56-22.44,16.81-39.27,37.45-49.54 c7.61-3.79,15.25-7.96,23.37-10.19c10.2-2.8,17.39,3.07,19.69,14.15c1.82,8.78-4,17.2-13.26,19.21 c-38.51,8.33-53.39,26.35-54.7,65.84c-0.84,25.05,3.59,49.36,9.78,73.45C247.77,226.56,247.98,228.25,248.28,229.92z"/><path d="M272.03,233.74c1.27-16.54,1.22-33.32,4.11-49.57c4.71-26.53,21.15-39.9,48.03-40.24 c30.62-0.38,57.52,12.22,83.64,26.39c7.21,3.91,8.85,17.45,4.27,24.18c-5.02,7.4-15.11,9.37-22.96,4.07 c-12.56-8.48-24.17-18.73-37.59-25.43c-11.44-5.71-24.7-9.54-37.43-10.44c-16.97-1.2-25.09,12.31-29.99,26.18 c-3.82,10.82-5.15,22.54-7.34,33.91c-0.71,3.69-0.62,7.53-0.9,11.31C274.61,233.98,273.32,233.86,272.03,233.74z"/><path d="M239.09,289.57c-29.39,31.9-30.63,69.56-24.15,108.86c1.25,7.58,3.87,14.94,5.92,22.38 c2.39,8.65,0.1,16.27-6.47,21.84c-8.98,7.61-23.12,0.54-24.84-12.82c-4.22-32.8-1.18-64.75,11.68-95.66 c7.1-17.08,17.78-30.87,32.61-41.63C235.45,291.38,237.33,290.56,239.09,289.57z"/><path d="M278.98,283.11c13.69,9.68,27.76,19.05,37.54,33.21c17.81,25.79,28.12,54.6,32.66,85.45 c1.79,12.15-5.54,21.37-15.93,21.58c-9.61,0.19-16.74-8.76-16.21-20.55c1.13-24.72-0.91-48.9-9.34-72.49 c-5.28-14.76-13.58-27.17-24.32-38.26c-2.22-2.29-4.25-4.76-6.37-7.15C277.66,284.29,278.32,283.7,278.98,283.11z"/><path d="M282.9,268.68c15.24,2.67,30.74,4.33,45.66,8.23c22.96,6,39.1,20.61,47.66,43.05 c0.63,1.66,1.17,3.41,1.34,5.17c0.84,8.32-2.02,11.33-4.33,13.48c-5.23,4.89-10.33,4.13-15.56-8.13 c-9.71-40.71-42.04-50.95-75.56-59.7C282.38,270.09,282.64,269.39,282.9,268.68z"/><path d="M85.85,261.77c-10.79,2.94-14.1,10.19-14.77,20.22c-5.32-8.59-12.53-10.14-21.3-6.94 c4.28-14.16,4.28-14.16,0.32-25.77c8.8,2.62,16.66,2.42,22.14-6.71C72.61,252.14,75.27,259.39,85.85,261.77z"/><path d="M127.88,397.7c0.12,9.57-4.5,14.86-10.61,14.34c-6.76-0.57-10.12-4.87-9.94-11.42 c0.18-6.4,3.36-11.06,10.27-11.05C124.37,389.59,127.73,393.73,127.88,397.7z"/><path d="M91.74,101.36c0.12,9.57-4.5,14.86-10.61,14.34c-6.76-0.57-10.12-4.87-9.94-11.42 c0.18-6.4,3.36-11.06,10.27-11.05C88.23,93.25,91.59,97.4,91.74,101.36z"/></g></svg>