<?xml version="1.0" encoding="UTF-8" standalone="no"?><svg xmlns="http://www.w3.org/2000/svg" xmlns:xlink="http://www.w3.org/1999/xlink" fill="#4c080d" height="100.5" preserveAspectRatio="xMidYMid meet" version="1" viewBox="14.2 13.7 100.6 100.5" width="100.6" zoomAndPan="magnify"><g id="change1_1"><path d="M96.204,13.726H32.653c-10.201,0-18.5,8.299-18.5,18.5v63.549c0,10.201,8.299,18.5,18.5,18.5h63.551 c10.2,0,18.5-8.299,18.5-18.5V32.226C114.704,22.024,106.404,13.726,96.204,13.726z M109.704,95.774c0,7.444-6.056,13.5-13.5,13.5 H32.653c-7.444,0-13.5-6.056-13.5-13.5V32.226c0-7.444,6.056-13.5,13.5-13.5h63.551c7.444,0,13.5,6.056,13.5,13.5V95.774z"/><path d="M87.238,31.029c-4.67,0-8.469,3.798-8.469,8.466c0,0.604,0.066,1.193,0.188,1.763c-4.198-2.692-9.182-4.261-14.529-4.262 C49.54,36.998,37.427,49.112,37.427,64c0,14.889,12.113,27.002,27.001,27.002c14.89,0,27.003-12.113,27.003-27.002 c0-6.04-1.994-11.623-5.357-16.126c0.382,0.053,0.769,0.09,1.165,0.09c4.67,0,8.469-3.798,8.469-8.467S91.908,31.029,87.238,31.029 z M64.428,86.002c-12.131,0-22.001-9.87-22.001-22.002c0-12.131,9.87-22.002,22.001-22.004C76.561,41.998,86.431,51.869,86.431,64 C86.431,76.132,76.561,86.002,64.428,86.002z M87.238,42.964c-1.912,0-3.469-1.556-3.469-3.469c0-1.911,1.557-3.466,3.469-3.466 s3.469,1.556,3.469,3.468C90.707,41.408,89.15,42.964,87.238,42.964z"/></g></svg>