<?xml version="1.0" encoding="UTF-8" standalone="no"?><svg xmlns="http://www.w3.org/2000/svg" xmlns:xlink="http://www.w3.org/1999/xlink" fill="#4c080d" height="384" preserveAspectRatio="xMidYMid meet" version="1" viewBox="0.0 0.0 384.0 384.0" width="384" zoomAndPan="magnify"><g id="change1_1"><path d="M 271.5 112.5 L 384 112.5 L 384 45 L 271.5 45 Z M 316.5 67.5 L 339 67.5 L 339 90 L 316.5 90 Z M 316.5 67.5"/><path d="M 271.5 202.5 L 384 202.5 L 384 135 L 271.5 135 Z M 316.5 157.5 L 339 157.5 L 339 180 L 316.5 180 Z M 316.5 157.5"/><path d="M 271.5 384 L 384 384 L 384 225 L 271.5 225 Z M 316.5 270 L 339 270 L 339 292.5 L 316.5 292.5 Z M 316.5 270"/><path d="M 159 270 L 204 270 L 204 225 L 159 225 Z M 159 270"/><path d="M 114 270 L 136.5 270 L 136.5 225 L 114 225 Z M 114 270"/><path d="M 226.5 270 L 249 270 L 249 225 L 226.5 225 Z M 226.5 270"/><path d="M 249 384 L 249 292.5 L 114 292.5 L 114 384 L 147.75 384 L 147.75 348.75 C 147.75 330.074219 162.824219 315 181.5 315 C 200.175781 315 215.25 330.074219 215.25 348.75 L 215.25 384 Z M 249 384"/><path d="M 91.5 225 L 0 225 L 0 384 L 91.5 384 Z M 57 292.5 L 34.5 292.5 L 34.5 270 L 57 270 Z M 57 292.5"/><path d="M 170.25 348.75 L 170.25 384 L 192.75 384 L 192.75 348.75 C 192.75 342.542969 187.695312 337.5 181.5 337.5 C 175.304688 337.5 170.25 342.542969 170.25 348.75 Z M 170.25 348.75"/><path d="M 192.75 141.589844 L 192.75 112.5 L 215.25 112.5 L 215.25 90 L 192.75 90 L 192.75 67.5 L 170.25 67.5 L 170.25 90 L 147.75 90 L 147.75 112.5 L 170.25 112.5 L 170.25 141.589844 L 109.339844 202.5 L 253.660156 202.5 Z M 192.75 141.589844"/><path d="M 296.070312 22.5 L 359.429688 22.5 C 354.769531 9.433594 342.398438 0 327.75 0 C 313.101562 0 300.730469 9.433594 296.070312 22.5 Z M 296.070312 22.5"/></g></svg>